# xmcd
#
# Track frame offsets:
# 150
# 22212
# 51700
# 84055
# 108687
# 128930
# 144512
# 165157
# 208925
# 232462
#
# Disc length: 3676 seconds
#
#
# Revision: 0
# Processed by: cddbd v1.5PL3 Copyright (c) Steve Scherf et al.
# Submitted via: FreeRIP 2.70 
#
DISCID=950e5a0a
DTITLE=Mike and the Mellotones - Live Magic
DYEAR=1900
DGENRE=Blues
TTITLE0=Not Fade Away
TTITLE1=Love Gone Sour
TTITLE2=Careless Rooster Blues
TTITLE3=Louise
TTITLE4=Louisiana Nights
TTITLE5=Travelin' Blues
TTITLE6=So Glad To Have You
TTITLE7=Song For A Friend
TTITLE8=I'd Hate You If I Didn't Love You
TTITLE9=Love Don't Love Nobody
EXTD=
EXTT0=
EXTT1=
EXTT2=
EXTT3=
EXTT4=
EXTT5=
EXTT6=
EXTT7=
EXTT8=
EXTT9=
PLAYORDER=
